<!DOCTYPE svg PUBLIC "-//W3C//DTD SVG 1.1//EN"
 "http://www.w3.org/Graphics/SVG/1.1/DTD/svg11.dtd">
<svg version="1.1"
 width="600px" height="501px"
 viewBox="0 0 600 501"
 xmlns="http://www.w3.org/2000/svg" shape-rendering="crispEdges"
 stroke-width="1" text-rendering="geometricPrecision">
<polygon fill="white" points="107,7 191,7 191,16 107,16"/>
<text x="150" y="16" textLength="82" font-family="Helvetica" font-size="12" fill="black" text-anchor="middle">

Peer 1 (Prover)
</text>
<polygon fill="white" points="406,7 492,7 492,16 406,16"/>
<text x="450" y="16" textLength="85" font-family="Helvetica" font-size="12" fill="black" text-anchor="middle">

Peer 2 (Verifier)
</text>
<line x1="150" y1="22" x2="150" y2="50" stroke="black"/>
<line x1="450" y1="22" x2="450" y2="50" stroke="black"/>
<line x1="150" y1="33" x2="450" y2="33" stroke="black"/>
<line x1="450" y1="33" x2="440" y2="39" stroke="black"/>
<polygon fill="white" points="260,23 338,23 338,32 260,32"/>
<text x="261" y="32" textLength="76" font-family="Helvetica" font-size="12" fill="black">
Key exchange
</text>
<line x1="150" y1="50" x2="150" y2="78" stroke="black"/>
<line x1="450" y1="50" x2="450" y2="78" stroke="black"/>
<line x1="450" y1="61" x2="150" y2="61" stroke="black"/>
<line x1="150" y1="61" x2="160" y2="67" stroke="black"/>
<polygon fill="white" points="260,51 338,51 338,60 260,60"/>
<text x="261" y="60" textLength="76" font-family="Helvetica" font-size="12" fill="black">
Key exchange
</text>
<line x1="150" y1="78" x2="150" y2="95" stroke="black"/>
<line x1="450" y1="78" x2="450" y2="95" stroke="black"/>
<line x1="150" y1="95" x2="150" y2="112" stroke="black"/>
<line x1="450" y1="95" x2="450" y2="112" stroke="black"/>
<line x1="75" y1="100" x2="525" y2="100" stroke="black" stroke-dasharray="2,2"/>
<polygon fill="white" points="241,96 357,96 357,105 241,105"/>
<text x="242" y="105" textLength="114" font-family="Helvetica" font-size="12" fill="black">
Shared key g created
</text>
<line x1="150" y1="112" x2="150" y2="129" stroke="black"/>
<line x1="450" y1="112" x2="450" y2="129" stroke="black"/>
<line x1="150" y1="129" x2="150" y2="146" stroke="black"/>
<line x1="450" y1="129" x2="450" y2="146" stroke="black"/>
<line x1="75" y1="134" x2="525" y2="134" stroke="black" stroke-dasharray="2,2"/>
<polygon fill="white" points="242,130 357,130 357,139 242,139"/>
<text x="243" y="139" textLength="113" font-family="Helvetica" font-size="12" fill="black">
Start VDF calculation
</text>
<line x1="150" y1="146" x2="150" y2="163" stroke="black"/>
<line x1="450" y1="146" x2="450" y2="163" stroke="black"/>
<line x1="150" y1="163" x2="150" y2="191" stroke="black"/>
<line x1="450" y1="163" x2="450" y2="191" stroke="black"/>
<line x1="150" y1="174" x2="450" y2="174" stroke="black"/>
<polygon fill="black" points="450,174 440,180 440,168"/>
<polygon fill="white" points="247,164 352,164 352,173 247,173"/>
<text x="248" y="173" textLength="103" font-family="Helvetica" font-size="12" fill="black">
X for Peer 2 to sign
</text>
<line x1="150" y1="191" x2="150" y2="208" stroke="black"/>
<line x1="450" y1="191" x2="450" y2="208" stroke="black"/>
<line x1="150" y1="208" x2="150" y2="236" stroke="black"/>
<line x1="450" y1="208" x2="450" y2="236" stroke="black"/>
<path d="M 150 225 A148,6 0 0,1 150,213" stroke="black" fill="none"/><line x1="150" y1="225" x2="140" y2="231" stroke="black"/>
<polygon fill="white" points="150,209 218,209 218,218 150,218"/>
<text x="151" y="218" textLength="66" font-family="Helvetica" font-size="12" fill="black">
VDF(g, T=1)
</text>
<line x1="150" y1="236" x2="150" y2="253" stroke="black"/>
<line x1="450" y1="236" x2="450" y2="253" stroke="black"/>
<line x1="150" y1="253" x2="150" y2="270" stroke="black" stroke-dasharray="2,2"/>
<line x1="450" y1="253" x2="450" y2="270" stroke="black" stroke-dasharray="2,2"/>
<line x1="150" y1="270" x2="150" y2="287" stroke="black"/>
<line x1="450" y1="270" x2="450" y2="287" stroke="black"/>
<line x1="150" y1="287" x2="150" y2="315" stroke="black"/>
<line x1="450" y1="287" x2="450" y2="315" stroke="black"/>
<path d="M 150 304 A148,6 0 0,1 150,292" stroke="black" fill="none"/><line x1="150" y1="304" x2="140" y2="310" stroke="black"/>
<polygon fill="white" points="150,288 279,288 279,297 150,297"/>
<text x="151" y="297" textLength="127" font-family="Helvetica" font-size="12" fill="black">
VDF(g^(2*(n-1)), T=n-1)
</text>
<line x1="150" y1="315" x2="150" y2="343" stroke="black"/>
<line x1="450" y1="315" x2="450" y2="343" stroke="black"/>
<line x1="450" y1="326" x2="150" y2="326" stroke="black" stroke-dasharray="2,2"/>
<polygon fill="black" points="150,326 160,332 160,320"/>
<polygon fill="white" points="278,316 320,316 320,325 278,325"/>
<text x="279" y="325" textLength="40" font-family="Helvetica" font-size="12" fill="black">
Sign(X)
</text>
<line x1="150" y1="343" x2="150" y2="371" stroke="black"/>
<line x1="450" y1="343" x2="450" y2="371" stroke="black"/>
<path d="M 150 360 A148,6 0 0,1 150,348" stroke="black" fill="none"/><line x1="150" y1="360" x2="140" y2="366" stroke="black"/>
<polygon fill="white" points="150,344 250,344 250,353 150,353"/>
<text x="151" y="353" textLength="98" font-family="Helvetica" font-size="12" fill="black">
VDF(g^(2*n), T=n)
</text>
<line x1="150" y1="371" x2="150" y2="388" stroke="black"/>
<line x1="450" y1="371" x2="450" y2="388" stroke="black"/>
<line x1="150" y1="388" x2="150" y2="405" stroke="black"/>
<line x1="450" y1="388" x2="450" y2="405" stroke="black"/>
<line x1="75" y1="393" x2="525" y2="393" stroke="black" stroke-dasharray="2,2"/>
<polygon fill="white" points="233,389 365,389 365,398 233,398"/>
<text x="234" y="398" textLength="130" font-family="Helvetica" font-size="12" fill="black">
VDF calculation stopped
</text>
<line x1="150" y1="405" x2="150" y2="422" stroke="black"/>
<line x1="450" y1="405" x2="450" y2="422" stroke="black"/>
<line x1="150" y1="422" x2="150" y2="450" stroke="black"/>
<line x1="450" y1="422" x2="450" y2="450" stroke="black"/>
<path d="M 150 439 A148,6 0 0,1 150,427" stroke="black" fill="none"/><line x1="150" y1="439" x2="140" y2="445" stroke="black"/>
<polygon fill="white" points="150,423 287,423 287,432 150,432"/>
<text x="151" y="432" textLength="135" font-family="Helvetica" font-size="12" fill="black">
Generate proof of latency
</text>
<line x1="150" y1="450" x2="150" y2="467" stroke="black"/>
<line x1="450" y1="450" x2="450" y2="467" stroke="black"/>
<line x1="150" y1="467" x2="150" y2="484" stroke="black"/>
<line x1="450" y1="467" x2="450" y2="484" stroke="black"/>
<line x1="75" y1="472" x2="525" y2="472" stroke="black" stroke-dasharray="2,2"/>
<polygon fill="white" points="219,468 379,468 379,477 219,477"/>
<text x="220" y="477" textLength="158" font-family="Helvetica" font-size="12" fill="black">
Proof available to the network
</text>
<line x1="150" y1="484" x2="150" y2="501" stroke="black"/>
<line x1="450" y1="484" x2="450" y2="501" stroke="black"/>
<line x1="150" y1="495" x2="150" y2="501" stroke="black"/>
<line x1="450" y1="495" x2="450" y2="501" stroke="black"/>
</svg>
